<svg xmlns="http://www.w3.org/2000/svg" viewBox="0 0 1200 750" role="img" aria-labelledby="title desc">
  <title id="title">Casual puzzle game placeholder</title>
  <desc id="desc">Simple puzzle game screen placeholder.</desc>
  <rect width="1200" height="750" fill="#071014"/>
  <rect x="72" y="72" width="1056" height="606" rx="32" fill="#101e24" stroke="#29454e" stroke-width="4"/>
  <rect x="144" y="150" width="420" height="420" rx="24" fill="#0b161b"/>
  <g fill="#67d8b2">
    <rect x="174" y="180" width="100" height="100" rx="20"/>
    <rect x="294" y="180" width="100" height="100" rx="20" opacity=".65"/>
    <rect x="414" y="180" width="100" height="100" rx="20"/>
    <rect x="174" y="300" width="100" height="100" rx="20" opacity=".65"/>
    <rect x="294" y="300" width="100" height="100" rx="20"/>
    <rect x="414" y="300" width="100" height="100" rx="20" opacity=".35"/>
    <rect x="174" y="420" width="100" height="100" rx="20"/>
    <rect x="294" y="420" width="100" height="100" rx="20" opacity=".35"/>
    <rect x="414" y="420" width="100" height="100" rx="20"/>
  </g>
  <rect x="640" y="170" width="350" height="36" rx="18" fill="#67d8b2"/>
  <rect x="640" y="235" width="420" height="22" rx="11" fill="#35545d"/>
  <rect x="640" y="285" width="380" height="22" rx="11" fill="#35545d"/>
  <rect x="640" y="360" width="220" height="72" rx="18" fill="#2fbf9f"/>
  <rect x="890" y="360" width="170" height="72" rx="18" fill="#14262d" stroke="#67d8b2" stroke-width="4"/>
</svg>
