<svg xmlns="http://www.w3.org/2000/svg" viewBox="0 0 1200 750" role="img" aria-labelledby="title desc">
  <title id="title">Deck builder game placeholder</title>
  <desc id="desc">Deck building roguelite game screen placeholder.</desc>
  <rect width="1200" height="750" fill="#071014"/>
  <rect x="72" y="72" width="1056" height="606" rx="32" fill="#101e24" stroke="#29454e" stroke-width="4"/>
  <rect x="130" y="130" width="940" height="150" rx="24" fill="#0b161b"/>
  <path d="M180 205h260M180 240h190" stroke="#67d8b2" stroke-width="18" stroke-linecap="round"/>
  <g>
    <rect x="190" y="350" width="190" height="260" rx="18" fill="#14262d" stroke="#67d8b2" stroke-width="5"/>
    <rect x="430" y="320" width="190" height="290" rx="18" fill="#14262d" stroke="#67d8b2" stroke-width="5"/>
    <rect x="670" y="350" width="190" height="260" rx="18" fill="#14262d" stroke="#67d8b2" stroke-width="5"/>
  </g>
  <circle cx="285" cy="430" r="38" fill="#2fbf9f"/>
  <circle cx="525" cy="405" r="38" fill="#2fbf9f"/>
  <circle cx="765" cy="430" r="38" fill="#2fbf9f"/>
  <path d="M230 520h110M470 505h110M710 520h110" stroke="#35545d" stroke-width="14" stroke-linecap="round"/>
  <path d="M230 555h80M470 540h80M710 555h80" stroke="#35545d" stroke-width="14" stroke-linecap="round"/>
</svg>
