<svg xmlns="http://www.w3.org/2000/svg" viewBox="0 0 1200 750" role="img" aria-labelledby="title desc">
  <title id="title">Workflow web tool placeholder</title>
  <desc id="desc">Business workflow web tool placeholder.</desc>
  <rect width="1200" height="750" fill="#071014"/>
  <rect x="72" y="72" width="1056" height="606" rx="32" fill="#101e24" stroke="#29454e" stroke-width="4"/>
  <rect x="130" y="130" width="220" height="490" rx="22" fill="#0b161b"/>
  <rect x="390" y="130" width="680" height="110" rx="22" fill="#0b161b"/>
  <rect x="390" y="280" width="680" height="340" rx="22" fill="#0b161b"/>
  <path d="M175 190h120M175 250h95M175 310h130M175 370h105" stroke="#67d8b2" stroke-width="18" stroke-linecap="round"/>
  <path d="M440 185h260M440 330h500M440 400h430M440 470h470M440 540h360" stroke="#35545d" stroke-width="20" stroke-linecap="round"/>
  <rect x="910" y="165" width="110" height="45" rx="14" fill="#2fbf9f"/>
  <circle cx="440" cy="330" r="12" fill="#67d8b2"/>
  <circle cx="440" cy="400" r="12" fill="#67d8b2"/>
  <circle cx="440" cy="470" r="12" fill="#67d8b2"/>
</svg>
